<svg width="164" height="34" viewBox="0 0 164 34" fill="none" xmlns="http://www.w3.org/2000/svg">
<path d="M164 7.87887C164 8.11553 163.956 8.33754 163.867 8.54492C163.779 8.7523 163.658 8.93284 163.5 9.08898C163.343 9.24512 163.161 9.36711 162.954 9.4525C162.747 9.54033 162.523 9.58424 162.282 9.58424H162.26C162.019 9.58424 161.792 9.54033 161.583 9.4525C161.374 9.36467 161.191 9.24268 161.036 9.08898C160.881 8.93284 160.758 8.7523 160.67 8.54492C160.581 8.33754 160.537 8.11553 160.537 7.87887V7.85692C160.537 7.62026 160.581 7.39825 160.67 7.19087C160.758 6.98594 160.879 6.80296 161.036 6.64925C161.191 6.49311 161.376 6.37113 161.583 6.28574C161.792 6.19791 162.016 6.15399 162.26 6.15399H162.282C162.521 6.15399 162.745 6.19791 162.954 6.28574C163.161 6.37357 163.343 6.49555 163.5 6.64925C163.658 6.8054 163.781 6.98594 163.867 7.19087C163.956 7.39581 164 7.61782 164 7.85692V7.87887ZM163.496 7.15428C163.372 6.94446 163.203 6.77856 162.993 6.65657C162.782 6.53459 162.545 6.47115 162.284 6.47115H162.262C162.001 6.47115 161.763 6.53215 161.551 6.65657C161.337 6.77856 161.169 6.9469 161.044 7.15428C160.921 7.36409 160.857 7.59831 160.857 7.85692V7.87887C160.857 8.13749 160.918 8.3717 161.044 8.58396C161.169 8.79621 161.337 8.96211 161.551 9.08654C161.765 9.21096 162.001 9.27196 162.262 9.27196H162.284C162.545 9.27196 162.782 9.21096 162.993 9.08654C163.205 8.96211 163.372 8.79621 163.496 8.58396C163.619 8.3717 163.683 8.13993 163.683 7.87887V7.85692C163.68 7.59831 163.619 7.36409 163.496 7.15428ZM161.598 6.98106H162.336C162.55 6.98106 162.713 7.03229 162.828 7.13232C162.944 7.23235 163.001 7.37141 163.001 7.54951C163.001 7.66174 162.969 7.76421 162.905 7.85448C162.841 7.94475 162.752 8.01062 162.634 8.04966L163.052 8.76205H162.673L162.297 8.10577C162.292 8.10577 162.287 8.10577 162.279 8.10577C162.272 8.10577 162.267 8.10577 162.26 8.10577H161.923V8.76205H161.593V6.98106H161.598ZM162.307 7.84716C162.42 7.84716 162.506 7.82032 162.568 7.76909C162.629 7.71785 162.661 7.6471 162.661 7.55683V7.55439C162.661 7.46412 162.629 7.39337 162.563 7.34214C162.499 7.2909 162.41 7.26406 162.297 7.26406H161.927V7.8496H162.307V7.84716Z" fill="#5141C3"/>
<path d="M26.6135 11.5751C29.8309 9.18169 32.8982 8.3839 35.9605 11.7361C36.0492 11.6604 36.2116 11.5238 36.3766 11.3872C38.4099 9.66231 40.6648 8.96211 43.2545 9.99412C44.6823 10.5626 45.502 11.68 45.5513 13.1682C45.6448 15.93 45.5907 18.6966 45.6153 21.4633C45.6202 21.9463 45.6842 22.4343 45.7728 22.91C45.891 23.5517 46.3169 23.9835 46.8658 24.3129C47.0357 24.4153 47.1809 24.552 47.2744 24.8008C44.5912 24.8008 41.9104 24.8008 39.2272 24.8008C39.205 24.7569 39.1829 24.713 39.1607 24.6715C39.2937 24.5568 39.4143 24.4178 39.5644 24.3299C40.3522 23.8688 40.7854 23.1955 40.7879 22.2854C40.7928 19.4993 40.8027 16.7156 40.7707 13.9294C40.7559 12.7412 40.1134 11.902 39.1657 11.6629C38.2868 11.4409 36.6843 12.146 36.2953 12.9486C36.2215 13.1023 36.2215 13.3024 36.2215 13.4829C36.219 16.2276 36.2387 18.9723 36.219 21.717C36.2116 22.9051 36.5169 23.881 37.6862 24.4251C37.7822 24.469 37.8388 24.5983 37.9988 24.7837C35.19 24.7837 32.492 24.7837 29.6045 24.7837C29.8679 24.5666 30.0033 24.4202 30.1707 24.3226C30.9633 23.8615 31.3917 23.1662 31.399 22.2732C31.4212 19.57 31.4212 16.8644 31.3892 14.1612C31.3843 13.6879 31.2538 13.1853 31.0569 12.751C30.4857 11.4823 28.93 11.2311 27.6573 12.1703C26.968 12.6778 26.5766 13.2829 26.6012 14.2222C26.6677 16.6814 26.6357 19.1431 26.6184 21.6023C26.6111 22.8149 26.8523 23.8713 28.1053 24.4202C28.1595 24.4446 28.2038 24.4934 28.2407 24.5422C28.2752 24.5885 28.2924 24.6495 28.3515 24.7837C25.5968 24.7837 22.8865 24.7837 20.1787 24.7837C20.1614 24.7447 20.1417 24.7032 20.1245 24.6642C20.2722 24.552 20.4101 24.4226 20.5701 24.3299C21.3849 23.8591 21.7985 23.1491 21.8034 22.2245C21.8157 19.6432 21.8255 17.0596 21.796 14.4783C21.7862 13.5586 21.54 12.7071 20.5898 12.2484C20.4765 12.1947 20.3485 11.9776 20.3756 11.8776C20.4101 11.7605 20.5922 11.6482 20.735 11.6019C22.0692 11.1603 23.4158 10.7504 24.7451 10.2966C25.1464 10.16 25.5058 9.90872 25.8849 9.70867C26.3255 9.47445 26.5938 9.61108 26.6184 10.1088C26.6332 10.5553 26.6135 11.0139 26.6135 11.5751Z" fill="#5141C3"/>
<path d="M10.4994 25.1131C7.37301 24.9838 4.91871 24.7203 2.64903 23.5931C0.691993 22.6197 -0.176982 21.1217 0.0297997 19.1382C0.23412 17.1889 2.64657 15.9519 4.23436 17.0303C4.63315 17.3011 4.98517 17.8086 5.10826 18.2721C5.3495 19.187 5.34212 20.1653 5.56613 21.0851C6.17417 23.5907 8.42415 24.53 10.7283 24.2348C12.2988 24.0347 13.4534 23.1955 13.9063 21.6536C14.4011 19.9677 13.9457 18.4844 12.6509 17.2743C11.2994 16.0129 9.60822 15.3152 7.96135 14.554C6.20125 13.7415 4.43129 12.9608 2.86074 11.7873C-0.240986 9.46958 -0.0317425 5.27325 1.83914 3.18485C2.9469 1.94547 4.40422 1.33553 5.98954 0.986654C8.10905 0.520667 10.2507 0.376723 12.3998 0.735363C14.3051 1.05497 16.1317 1.61366 17.3601 3.2312C17.7662 3.76306 18.1035 4.42423 18.2315 5.07319C18.6598 7.25187 16.6733 8.0155 15.2233 7.64954C14.0269 7.34702 13.5494 6.43944 13.2047 5.405C13.0004 4.79018 12.8256 4.16318 12.6041 3.55324C11.9124 1.64782 10.2778 1.05741 8.40199 1.35017C6.82898 1.59415 5.77538 2.47001 5.44305 4.03387C5.11318 5.58797 5.59075 6.92982 6.80436 7.97647C8.05982 9.06214 9.58853 9.65743 11.1049 10.2771C13.1235 11.1042 15.1913 11.841 16.8923 13.2755C18.9085 14.976 19.5584 17.1352 19.0956 19.6725C18.6205 22.2781 16.9047 23.7298 14.4528 24.3739C12.9635 24.7642 11.4126 24.9472 10.4994 25.1131Z" fill="#5141C3"/>
<path d="M54.4454 11.0481C54.8614 10.726 55.1272 10.4772 55.4325 10.2918C56.72 9.50861 58.133 9.34759 59.5804 9.62328C62.7683 10.2283 64.4718 11.9508 65.0897 15.1175C65.5648 17.5451 65.4171 19.897 64.0656 22.0512C63.0563 23.659 61.5424 24.5227 59.6789 24.8911C57.9139 25.24 56.2301 25.0131 54.4995 24.3446C54.4774 24.6056 54.4478 24.7959 54.4478 24.9887C54.4454 26.677 54.4528 28.3628 54.4429 30.0511C54.438 31.1685 54.7949 32.0785 55.851 32.6274C55.9815 32.6933 56.0602 32.8543 56.2621 33.0812C53.4065 33.0812 50.7208 33.0812 48.0351 33.0812C48.0056 33.0349 47.9761 32.9861 47.949 32.9397C48.109 32.7982 48.2468 32.6201 48.429 32.5177C49.2389 32.059 49.618 31.349 49.6205 30.4585C49.6328 25.1521 49.6377 19.8457 49.6205 14.5393C49.618 13.6 49.394 12.7217 48.4167 12.2484C48.301 12.1923 48.1705 11.9801 48.1951 11.88C48.2247 11.7629 48.4069 11.6458 48.5472 11.5995C49.9011 11.153 51.2624 10.7334 52.6139 10.2747C52.9757 10.1527 53.3056 9.93068 53.6429 9.74038C54.15 9.45738 54.4109 9.58668 54.4404 10.1576C54.4552 10.3942 54.4454 10.6358 54.4454 11.0481ZM54.4454 17.2279C54.4454 18.6088 54.438 19.9921 54.4478 21.373C54.4577 22.4684 55.1297 23.5126 56.0233 23.8591C57.4191 24.4007 58.8542 23.6639 59.4795 22.0927C60.4026 19.775 60.3805 17.3645 60.122 14.9492C60.0309 14.0953 59.7626 13.2414 59.4598 12.4314C58.9995 11.1993 57.8425 10.5748 56.6313 10.8139C55.5679 11.0237 54.3223 12.1972 54.4232 13.4488C54.5241 14.7003 54.4454 15.9666 54.4454 17.2279Z" fill="#5141C3"/>
<path d="M95.4446 7.1738C95.4446 6.87615 95.4151 6.57362 95.4496 6.28086C95.649 4.62672 95.8705 2.97747 96.065 1.32334C96.1167 0.879306 96.2939 0.713405 96.7715 0.715845C103.128 0.730483 109.484 0.728043 115.842 0.720724C116.234 0.720724 116.421 0.801235 116.47 1.23795C116.672 3.03358 116.925 4.82434 117.135 6.61754C117.157 6.81516 117.029 7.02985 116.97 7.23723C116.834 7.08597 116.647 6.95666 116.573 6.781C115.946 5.30985 115.175 3.94604 113.939 2.87012C112.649 1.75029 111.128 1.54047 109.516 1.71857C109.304 1.74297 109.048 2.0333 108.954 2.26019C108.836 2.54808 108.834 2.89452 108.834 3.21656C108.826 9.43542 108.829 15.6567 108.821 21.8756C108.821 23.0149 109.265 23.8762 110.318 24.3885C110.446 24.4495 110.574 24.508 110.702 24.5666C110.658 24.6373 110.611 24.7081 110.567 24.7764C107.711 24.7764 104.858 24.7764 101.838 24.7764C102.049 24.5763 102.138 24.447 102.261 24.3836C103.329 23.8371 103.753 22.9295 103.755 21.7877C103.76 19.6335 103.758 17.4792 103.758 15.3249C103.758 11.5043 103.763 7.6837 103.753 3.86065C103.753 3.37514 103.706 2.88964 103.64 2.40901C103.568 1.88691 103.238 1.70393 102.699 1.66002C99.7994 1.41605 98.0048 2.94819 96.7001 5.27569C96.4121 5.78803 96.2053 6.34429 95.9394 6.86639C95.8607 7.02253 95.7007 7.1372 95.5776 7.27138C95.5333 7.23967 95.489 7.20551 95.4446 7.1738Z" fill="#5141C3"/>
<path d="M128.825 16.618C128.825 14.7882 128.81 12.9584 128.835 11.1286C128.842 10.6382 128.675 10.465 128.2 10.5187C127.998 10.5431 127.781 10.5577 127.587 10.5138C127.383 10.4674 127.195 10.343 127.001 10.2527C127.144 10.021 127.237 9.65011 127.442 9.57692C128.946 9.03042 130.196 8.12773 131.208 6.93226C131.686 6.36869 132.097 5.7002 132.355 5.0122C133.084 3.08238 132.023 1.37457 129.977 0.969575C128.067 0.591418 126.272 0.923221 124.552 1.74785C124.227 1.90399 123.936 2.1504 123.675 2.40169C122.998 3.05798 122.959 3.81185 123.601 4.5023C124.261 5.20982 124.655 5.96857 124.549 6.96886C124.409 8.29119 123.272 9.27196 121.824 9.25244C120.423 9.23292 119.257 8.16432 119.205 6.84687C119.114 4.52913 120.369 2.96283 122.218 1.82104C124.259 0.564581 126.521 -0.0819457 128.933 0.00832406C130.142 0.0522391 131.319 0.374283 132.316 1.1306C133.145 1.76005 133.608 2.60175 133.625 3.63375C133.655 5.44159 133.655 7.25187 133.63 9.06214C133.623 9.60132 133.803 9.79406 134.339 9.75014C134.787 9.71355 135.245 9.70867 135.691 9.76234C135.863 9.78186 136.099 9.9746 136.151 10.1381C136.252 10.465 135.998 10.5333 135.713 10.5284C135.179 10.5211 134.647 10.5382 134.113 10.5235C133.776 10.5162 133.638 10.6382 133.64 10.9846C133.648 14.2783 133.625 17.5719 133.652 20.8655C133.66 21.9463 134.302 22.5441 135.139 22.3391C135.383 22.2781 135.59 22.0781 135.826 21.9634C135.959 21.9 136.114 21.8805 136.259 21.8414C136.264 21.9829 136.314 22.1391 136.269 22.261C135.336 24.7325 132.116 25.3815 130.278 24.4861C129.29 24.0055 128.889 23.1589 128.845 22.1098C128.842 22.0488 128.84 21.9878 128.84 21.9268C128.828 20.1531 128.828 18.3868 128.825 16.618C128.828 16.618 128.825 16.618 128.825 16.618Z" fill="#5141C3"/>
<path d="M75.148 9.8087C78.0282 9.8087 80.9084 9.8087 83.8526 9.8087C83.7738 9.95996 83.7541 10.0429 83.7024 10.0966C82.7374 11.1018 82.6685 11.4116 83.2864 12.6632C84.4655 15.0468 85.6693 17.4182 86.8657 19.792C86.9444 19.9506 87.0601 20.0921 87.2325 20.3556C87.6633 19.3871 88.0547 18.5112 88.4461 17.6329C89.128 16.0934 89.8295 14.5637 90.477 13.0096C90.6419 12.6119 90.6985 12.1386 90.6887 11.7019C90.6665 10.6236 89.9256 10.1649 88.9433 9.95508C89.352 9.67695 94.3738 9.64768 94.9228 9.91605C94.8243 9.98192 94.7505 10.0527 94.6643 10.0844C92.8599 10.7114 91.8727 12.102 91.1121 13.7391C89.0246 18.2282 86.9444 22.7197 84.788 27.1771C84.2538 28.2799 83.5326 29.3192 82.7473 30.2658C81.482 31.7931 79.6308 32.2615 77.947 31.6564C76.3814 31.0929 75.6699 29.1362 76.534 27.7187C76.8294 27.2332 77.2528 26.8916 77.8633 26.8502C78.235 26.8258 78.523 26.8868 78.7396 27.2527C78.8873 27.4991 79.1483 27.7334 79.4142 27.848C80.5982 28.3482 81.8069 28.4018 82.9762 27.8017C84.2514 27.1478 84.6231 25.9475 83.9043 24.4031C83.0845 22.6392 82.1614 20.9192 81.253 19.1943C80.1083 17.0205 78.9095 14.8736 77.7821 12.69C77.1691 11.4994 76.4281 10.4699 75.1062 9.9624C75.121 9.91117 75.1333 9.85993 75.148 9.8087Z" fill="#5141C3"/>
<path d="M162.27 19.1797C161.92 19.8262 161.598 20.4898 161.216 21.1168C158.614 25.3717 153.302 25.9938 149.693 23.903C147.911 22.871 146.951 21.2364 146.599 19.2821C146.227 17.2059 146.301 15.1371 147.381 13.2365C148.765 10.7992 151.022 9.75502 153.718 9.54521C155.862 9.3793 157.853 9.81602 159.412 11.4189C160.571 12.6119 161.044 14.1075 161.177 15.7299C161.209 16.1154 161.066 16.2593 160.665 16.291C157.703 16.5301 154.742 16.7863 151.783 17.062C151.611 17.0791 151.327 17.2938 151.318 17.4328C151.175 19.3602 152.935 21.7072 154.816 22.061C156.879 22.4465 158.774 22.0244 160.406 20.6777C160.891 20.2776 161.287 19.7774 161.728 19.3261C161.831 19.2187 161.95 19.126 162.06 19.026C162.127 19.0796 162.198 19.1309 162.27 19.1797ZM156.753 14.1246C156.63 13.4512 156.559 12.7608 156.369 12.1045C156.13 11.2823 155.697 10.5162 154.791 10.3088C153.853 10.0941 153.075 10.4869 152.48 11.2408C151.419 12.5802 151.259 14.1709 151.165 15.7811C151.138 16.2422 151.465 16.2203 151.8 16.1788C152.918 16.0422 154.035 15.8958 155.158 15.7958C156.689 15.6616 156.691 15.6762 156.753 14.1246Z" fill="#5141C3"/>
<path d="M145.464 24.7959C142.714 24.7959 140.026 24.7959 137.338 24.7959C137.318 24.752 137.296 24.7081 137.276 24.6642C137.416 24.5495 137.544 24.4153 137.7 24.3251C138.514 23.8542 138.935 23.1467 138.935 22.2245C138.943 16.7375 138.945 11.2481 138.933 5.7612C138.93 4.80726 138.674 3.9558 137.727 3.46297C137.611 3.40442 137.468 3.15069 137.5 3.10921C137.599 2.97747 137.764 2.86524 137.924 2.81645C138.839 2.53832 139.782 2.33094 140.678 2.00402C141.478 1.71125 142.239 1.30138 143.009 0.93054C143.47 0.708526 143.716 0.828072 143.75 1.32822C143.765 1.53071 143.755 1.73565 143.755 1.93815C143.755 8.46197 143.763 14.9882 143.75 21.5121C143.748 22.7661 143.957 23.8664 145.267 24.4324C145.318 24.4544 145.363 24.5105 145.392 24.5617C145.422 24.6081 145.429 24.6691 145.464 24.7959Z" fill="#5141C3"/>
<path d="M74.4417 24.7862C71.6182 24.7862 68.9177 24.7862 66.2148 24.7862C66.1976 24.7423 66.1803 24.6983 66.1631 24.6544C66.3132 24.5422 66.4511 24.4153 66.6136 24.3202C67.4235 23.8444 67.842 23.1369 67.8444 22.2123C67.8518 16.7229 67.8543 11.2359 67.842 5.74656C67.8395 4.79262 67.5736 3.94116 66.6259 3.45322C66.5225 3.39954 66.3896 3.16533 66.4093 3.14337C66.5348 3.00675 66.6874 2.86036 66.8597 2.80181C68.2112 2.34802 69.5725 1.92595 70.9191 1.45996C71.2809 1.33553 71.601 1.09156 71.9456 0.915902C72.3641 0.703646 72.6176 0.837831 72.6619 1.2965C72.6792 1.47704 72.6669 1.66246 72.6669 1.84544C72.6669 8.3717 72.6767 14.8955 72.6595 21.4218C72.657 22.7173 72.854 23.8591 74.2054 24.4544C74.2793 24.491 74.3162 24.6105 74.4417 24.7862Z" fill="#5141C3"/>
<path d="M126.201 24.8057C123.53 24.8057 120.859 24.8057 117.991 24.8057C118.24 24.5666 118.346 24.4153 118.494 24.3299C119.281 23.8737 119.72 23.2101 119.724 22.2976C119.737 19.7799 119.747 17.2621 119.742 14.7443C119.739 13.9294 119.281 13.3951 118.587 13.0121C118.371 12.8925 118.201 12.6925 118.011 12.529C118.215 12.3875 118.403 12.1874 118.629 12.1167C120.488 11.5336 122.27 10.7992 123.89 9.70379C124.247 9.46226 124.503 9.594 124.562 10.0332C124.586 10.2137 124.572 10.3991 124.572 10.5821C124.572 14.1368 124.567 17.6914 124.579 21.2437C124.581 21.7268 124.643 22.2147 124.709 22.6953C124.808 23.4028 125.182 23.9323 125.815 24.2885C125.989 24.3861 126.135 24.5349 126.292 24.6593C126.26 24.7081 126.231 24.7569 126.201 24.8057Z" fill="#5141C3"/>
</svg>
