<svg width="10" height="16" viewBox="0 0 10 16" fill="none" xmlns="http://www.w3.org/2000/svg">
<path d="M0.280419 6.19693C0.458132 6.39073 0.69853 6.49951 0.94911 6.49951C1.19969 6.49951 1.44009 6.39073 1.6178 6.19693L5.02291 2.51347L8.38059 6.19693C8.5583 6.39073 8.7987 6.49951 9.04928 6.49951C9.29986 6.49951 9.54026 6.39073 9.71797 6.19693C9.80687 6.1002 9.87744 5.98512 9.92559 5.85832C9.97374 5.73153 9.99854 5.59552 9.99854 5.45816C9.99854 5.3208 9.97374 5.1848 9.92559 5.058C9.87744 4.9312 9.80687 4.81612 9.71797 4.71939L5.69634 0.307556C5.60817 0.210029 5.50326 0.13262 5.38768 0.0797945C5.2721 0.026968 5.14812 -0.0002298 5.02291 -0.000229811C4.8977 -0.000229822 4.77372 0.026968 4.65814 0.0797944C4.54255 0.13262 4.43765 0.210029 4.34947 0.307556L0.280419 4.71939C0.191518 4.81612 0.120956 4.9312 0.0728017 5.058C0.0246478 5.1848 -0.000145813 5.3208 -0.000145825 5.45816C-0.000145836 5.59552 0.0246478 5.73152 0.0728016 5.85832C0.120956 5.98512 0.191518 6.1002 0.280419 6.19693Z" fill="#84878B"/>
<path d="M9.71958 9.80258C9.54187 9.60878 9.30147 9.5 9.05089 9.5C8.80031 9.5 8.55991 9.60878 8.3822 9.80258L4.97709 13.486L1.61941 9.80258C1.4417 9.60878 1.2013 9.5 0.95072 9.5C0.70014 9.5 0.459742 9.60878 0.282029 9.80258C0.193128 9.89931 0.122565 10.0144 0.0744107 10.1412C0.0262567 10.268 0.00146484 10.404 0.00146484 10.5414C0.00146484 10.6787 0.0262567 10.8147 0.0744107 10.9415C0.122565 11.0683 0.193128 11.1834 0.282029 11.2801L4.30366 15.692C4.39183 15.7895 4.49674 15.8669 4.61232 15.9197C4.72791 15.9725 4.85188 15.9997 4.97709 15.9997C5.10231 15.9997 5.22628 15.9725 5.34186 15.9197C5.45745 15.8669 5.56235 15.7895 5.65053 15.692L9.71958 11.2801C9.80848 11.1834 9.87904 11.0683 9.9272 10.9415C9.97535 10.8147 10.0001 10.6787 10.0001 10.5414C10.0001 10.404 9.97535 10.268 9.9272 10.1412C9.87904 10.0144 9.80848 9.89931 9.71958 9.80258Z" fill="#84878B"/>
</svg>
