<svg width="20" height="20" viewBox="0 0 20 20" fill="none" xmlns="http://www.w3.org/2000/svg">
<path fill-rule="evenodd" clip-rule="evenodd" d="M6.00049 4H4.00049V2.99997H2.00144V6H18.0014V2.99997H16.0005V4H14.0005V2.99997H6.00049V4ZM18.0014 8H2.00144V18H18.0014V8ZM14.0005 1.00004H6.00049V0H4.00049V1.00004H2C0.89543 1.00004 0 1.89548 0 3.00005V18C0 19.1046 0.89543 20 2 20H18C19.1046 20 20 19.1046 20 18V3.00005C20 1.89548 19.1046 1.00004 18 1.00004H16.0005V0H14.0005V1.00004ZM7 12H5V10H7V12ZM9.00049 12H11.0005V10H9.00049V12ZM14.9986 12H12.9986V10H14.9986V12ZM5 16H7V14H5V16ZM11.0005 16H9.00049V14H11.0005V16Z" fill="#3B3E44"/>
</svg>
