<svg width="18" height="20" viewBox="0 0 18 20" fill="none" xmlns="http://www.w3.org/2000/svg">
<path d="M17.0001 6.01673L11.0001 0.763019C10.4501 0.271652 9.73803 0 9.0001 0C8.26216 0 7.55012 0.271652 7.0001 0.763019L1.00009 6.01673C0.682463 6.30047 0.428995 6.64853 0.256567 7.03776C0.0841385 7.42698 -0.00329256 7.84842 9.47941e-05 8.27403V17.0036C9.47941e-05 17.7983 0.316165 18.5604 0.878775 19.1224C1.44138 19.6843 2.20445 20 3.0001 20H15.0001C15.7957 20 16.5588 19.6843 17.1214 19.1224C17.684 18.5604 18.0001 17.7983 18.0001 17.0036V8.26404C18.0021 7.84011 17.9139 7.42059 17.7416 7.0332C17.5692 6.6458 17.3165 6.29935 17.0001 6.01673ZM11.0001 18.0024H7.0001V13.0084C7.0001 12.7435 7.10545 12.4894 7.29299 12.3021C7.48053 12.1148 7.73488 12.0096 8.0001 12.0096H10.0001C10.2653 12.0096 10.5197 12.1148 10.7072 12.3021C10.8947 12.4894 11.0001 12.7435 11.0001 13.0084V18.0024ZM16.0001 17.0036C16.0001 17.2685 15.8947 17.5225 15.7072 17.7098C15.5197 17.8972 15.2653 18.0024 15.0001 18.0024H13.0001V13.0084C13.0001 12.2137 12.684 11.4515 12.1214 10.8896C11.5588 10.3276 10.7957 10.012 10.0001 10.012H8.0001C7.20445 10.012 6.44138 10.3276 5.87877 10.8896C5.31617 11.4515 5.0001 12.2137 5.0001 13.0084V18.0024H3.0001C2.73488 18.0024 2.48053 17.8972 2.29299 17.7098C2.10545 17.5225 2.0001 17.2685 2.0001 17.0036V8.26404C2.00027 8.12223 2.03069 7.98208 2.08931 7.85291C2.14794 7.72375 2.23343 7.60854 2.3401 7.51494L8.3401 2.27121C8.52258 2.11109 8.75719 2.02278 9.0001 2.02278C9.243 2.02278 9.47761 2.11109 9.6601 2.27121L15.6601 7.51494C15.7668 7.60854 15.8523 7.72375 15.9109 7.85291C15.9695 7.98208 15.9999 8.12223 16.0001 8.26404V17.0036Z" fill="#3B3E44"/>
</svg>
