<svg width="20" height="20" viewBox="0 0 20 20" fill="none" xmlns="http://www.w3.org/2000/svg">
<path fill-rule="evenodd" clip-rule="evenodd" d="M10.9434 6.34078V9.09114H13.6126C13.5557 8.01113 13.3993 6.99977 13.1688 6.09473C12.4543 6.22006 11.7083 6.30317 10.9434 6.34078ZM9.12495 6.34403C8.336 6.30809 7.5668 6.22379 6.83092 6.09473C6.60043 6.99978 6.44406 8.01113 6.38721 9.09115H9.12495V6.34403V6.34403ZM10.9434 13.108C11.7525 13.1478 12.5405 13.2385 13.2925 13.3762C13.4554 12.6121 13.5665 11.7831 13.6126 10.9092H10.9434V13.108ZM9.12498 13.1047V10.9091H6.38723C6.43324 11.7831 6.54441 12.6121 6.70729 13.3761C7.4805 13.2345 8.29172 13.1426 9.12498 13.1047ZM10.9434 14.9287V17.8708C11.6502 17.4039 12.3023 16.436 12.7877 15.1333C12.197 15.0326 11.579 14.9633 10.9434 14.9287ZM9.12532 14.9248C8.46553 14.9581 7.82428 15.0286 7.2124 15.133C7.71351 16.4777 8.39221 17.4657 9.12532 17.9141V14.9248ZM10.9434 4.51991C11.5044 4.48937 12.0517 4.43184 12.5786 4.34947C12.1221 3.30775 11.5531 2.53216 10.9434 2.12939V4.51991ZM9.12563 4.52365V2.08594C8.49006 2.47468 7.89539 3.26894 7.42188 4.34961C7.97019 4.43533 8.54062 4.49415 9.12563 4.52365ZM1.86816 9.09079H4.56669C4.62335 7.88162 4.79237 6.72979 5.05801 5.67729C4.49165 5.50696 3.95718 5.30684 3.46279 5.0791C2.60209 6.22073 2.03352 7.595 1.86816 9.09079ZM1.86816 10.9092C2.01409 12.2292 2.47404 13.4546 3.17166 14.509C3.7111 14.2396 4.30365 14.0049 4.93754 13.808C4.74097 12.8987 4.61425 11.9241 4.56669 10.9092H1.86816ZM18.1317 9.0908C17.9664 7.595 17.3978 6.22073 16.5371 5.0791C16.0427 5.30686 15.5082 5.50698 14.9419 5.67729C15.2075 6.72979 15.3765 7.88162 15.4332 9.0908H18.1317ZM18.1323 10.9091H15.4338C15.3863 11.924 15.2595 12.8986 15.063 13.8079C15.6968 14.0048 16.2894 14.2395 16.8288 14.5089C17.5265 13.4545 17.9864 12.2291 18.1323 10.9091ZM6.18299 17.2394C5.89831 16.7329 5.64577 16.1691 5.42938 15.5586C5.06011 15.675 4.70978 15.8055 4.38184 15.949C4.91873 16.4562 5.52424 16.8914 6.18299 17.2394ZM13.8169 17.2394C14.4756 16.8914 15.0811 16.4562 15.618 15.949C15.2901 15.8055 14.9397 15.675 14.5705 15.5586C14.3541 16.1691 14.1016 16.7329 13.8169 17.2394ZM6.18424 2.76074C5.69486 3.01925 5.23486 3.32592 4.81055 3.67446C5.0685 3.77304 5.33808 3.86414 5.61784 3.94729C5.78877 3.52442 5.97807 3.12755 6.18424 2.76074ZM13.8168 2.76077C14.023 3.12758 14.2123 3.52444 14.3832 3.94731C14.663 3.86416 14.9325 3.77306 15.1905 3.67447C14.7662 3.32594 14.3062 3.01927 13.8168 2.76077ZM10 20C4.47715 20 0 15.5228 0 10C0 4.47715 4.47715 0 10 0C15.5228 0 20 4.47715 20 10C20 15.5228 15.5228 20 10 20Z" fill="#3B3E44"/>
</svg>
