<svg width="149" height="30" viewBox="0 0 149 30" fill="none" xmlns="http://www.w3.org/2000/svg">
<path d="M148.796 7.14479C148.796 7.3594 148.756 7.56074 148.676 7.7488C148.595 7.93686 148.486 8.10059 148.343 8.24219C148.2 8.38379 148.035 8.49441 147.847 8.57185C147.66 8.6515 147.457 8.69132 147.238 8.69132H147.218C146.999 8.69132 146.794 8.6515 146.604 8.57185C146.414 8.4922 146.249 8.38157 146.108 8.24219C145.968 8.10059 145.856 7.93686 145.776 7.7488C145.695 7.56074 145.655 7.3594 145.655 7.14479V7.12488C145.655 6.91027 145.695 6.70893 145.776 6.52087C145.856 6.33502 145.966 6.16909 146.108 6.0297C146.249 5.8881 146.417 5.77748 146.604 5.70004C146.794 5.62039 146.997 5.58057 147.218 5.58057H147.238C147.455 5.58057 147.658 5.62039 147.847 5.70004C148.035 5.77969 148.2 5.89031 148.343 6.0297C148.486 6.1713 148.598 6.33502 148.676 6.52087C148.756 6.70672 148.796 6.90806 148.796 7.12488V7.14479ZM148.339 6.48769C148.227 6.29741 148.073 6.14696 147.883 6.03634C147.691 5.92571 147.477 5.86819 147.24 5.86819H147.22C146.984 5.86819 146.767 5.9235 146.575 6.03634C146.381 6.14696 146.229 6.29962 146.115 6.48769C146.004 6.67796 145.945 6.89036 145.945 7.12488V7.14479C145.945 7.37932 146.001 7.59172 146.115 7.7842C146.229 7.97669 146.381 8.12714 146.575 8.23997C146.769 8.35281 146.984 8.40812 147.22 8.40812H147.24C147.477 8.40812 147.691 8.35281 147.883 8.23997C148.075 8.12714 148.227 7.97669 148.339 7.7842C148.45 7.59172 148.508 7.38153 148.508 7.14479V7.12488C148.506 6.89036 148.45 6.67796 148.339 6.48769ZM146.617 6.3306H147.287C147.481 6.3306 147.629 6.37706 147.734 6.46777C147.839 6.55848 147.89 6.6846 147.89 6.84611C147.89 6.94788 147.861 7.04081 147.803 7.12267C147.745 7.20453 147.664 7.26427 147.557 7.29967L147.937 7.94571H147.593L147.251 7.35055C147.247 7.35055 147.243 7.35055 147.236 7.35055C147.229 7.35055 147.225 7.35055 147.218 7.35055H146.912V7.94571H146.613V6.3306H146.617ZM147.26 7.11603C147.363 7.11603 147.441 7.09169 147.497 7.04523C147.553 6.99877 147.582 6.93461 147.582 6.85275V6.85053C147.582 6.76867 147.553 6.70451 147.493 6.65805C147.434 6.61158 147.354 6.58725 147.251 6.58725H146.917V7.11824H147.26V7.11603Z" fill="#5141C3"/>
<path d="M24.2061 10.4972C27.1239 8.32674 29.9055 7.60326 32.6826 10.6432C32.7629 10.5746 32.9103 10.4507 33.0598 10.3268C34.9038 8.7626 36.9487 8.12762 39.2972 9.0635C40.592 9.57901 41.3354 10.5923 41.38 11.9419C41.4648 14.4465 41.4157 16.9554 41.438 19.4644C41.4425 19.9025 41.5006 20.345 41.5809 20.7764C41.6881 21.3583 42.0743 21.7499 42.5721 22.0486C42.7261 22.1415 42.8579 22.2654 42.9427 22.4911C40.5094 22.4911 38.0783 22.4911 35.645 22.4911C35.6249 22.4513 35.6048 22.4114 35.5847 22.3738C35.7052 22.2698 35.8146 22.1437 35.9508 22.0641C36.6652 21.6459 37.0581 21.0353 37.0603 20.21C37.0648 17.6833 37.0737 15.1589 37.0447 12.6322C37.0313 11.5548 36.4486 10.7937 35.5892 10.5768C34.7922 10.3755 33.3389 11.0149 32.9862 11.7428C32.9192 11.8822 32.9192 12.0636 32.9192 12.2274C32.917 14.7164 32.9348 17.2054 32.917 19.6945C32.9103 20.772 33.1871 21.657 34.2475 22.1504C34.3345 22.1902 34.3859 22.3074 34.531 22.4756C31.9838 22.4756 29.5371 22.4756 26.9185 22.4756C27.1574 22.2787 27.2802 22.1459 27.432 22.0574C28.1508 21.6393 28.5392 21.0087 28.5459 20.1989C28.566 17.7475 28.566 15.2939 28.537 12.8424C28.5325 12.4132 28.4142 11.9574 28.2356 11.5636C27.7177 10.4131 26.3068 10.1852 25.1527 11.037C24.5276 11.4972 24.1727 12.0459 24.195 12.8977C24.2553 15.1279 24.2262 17.3603 24.2106 19.5905C24.2039 20.6901 24.4227 21.6481 25.559 22.1459C25.6081 22.1681 25.6483 22.2123 25.6818 22.2566C25.713 22.2986 25.7286 22.3539 25.7822 22.4756C23.2842 22.4756 20.8263 22.4756 18.3706 22.4756C18.355 22.4402 18.3372 22.4026 18.3215 22.3672C18.4555 22.2654 18.5805 22.1481 18.7256 22.0641C19.4645 21.6371 19.8396 20.9932 19.844 20.1547C19.8552 17.8139 19.8641 15.4709 19.8373 13.13C19.8284 12.2959 19.6052 11.5238 18.7435 11.1078C18.6408 11.0592 18.5247 10.8623 18.5492 10.7715C18.5805 10.6653 18.7457 10.5636 18.8752 10.5215C20.0851 10.1211 21.3063 9.74937 22.5117 9.33785C22.8756 9.21395 23.2016 8.98606 23.5454 8.80464C23.945 8.59224 24.1883 8.71614 24.2106 9.16749C24.224 9.57237 24.2061 9.98832 24.2061 10.4972Z" fill="#5141C3"/>
<path d="M9.59272 22.7741C6.75757 22.6568 4.53186 22.4179 2.47359 21.3957C0.698829 20.5129 -0.0892085 19.1545 0.0983132 17.3557C0.283603 15.5879 2.47136 14.4662 3.91126 15.4441C4.2729 15.6897 4.59214 16.1499 4.70376 16.5703C4.92253 17.4 4.91584 18.2872 5.11898 19.1213C5.67039 21.3935 7.7108 22.2453 9.80033 21.9776C11.2246 21.7962 12.2716 21.0351 12.6824 19.6368C13.1311 18.108 12.7181 16.7628 11.5438 15.6654C10.3182 14.5215 8.78459 13.8888 7.29111 13.1985C5.69494 12.4617 4.08985 11.7537 2.66557 10.6895C-0.147251 8.58764 0.0425031 4.78217 1.73913 2.88828C2.74371 1.76434 4.06529 1.21121 5.50296 0.894829C7.42506 0.472244 9.36724 0.341707 11.3161 0.666943C13.044 0.956778 14.7005 1.46344 15.8144 2.93032C16.1828 3.41264 16.4886 4.01222 16.6047 4.60074C16.9931 6.57649 15.1916 7.269 13.8767 6.93713C12.7917 6.66278 12.3587 5.83973 12.0461 4.90164C11.8608 4.34409 11.7023 3.77548 11.5014 3.22236C10.8741 1.49441 9.3918 0.958991 7.69071 1.22449C6.26421 1.44574 5.30874 2.24002 5.00736 3.65822C4.70822 5.06758 5.14131 6.28444 6.24188 7.2336C7.38041 8.21815 8.76673 8.758 10.1419 9.31997C11.9725 10.07 13.8477 10.7382 15.3903 12.0391C17.2186 13.5812 17.808 15.5393 17.3883 17.8403C16.9574 20.2032 15.4014 21.5196 13.178 22.1037C11.8274 22.4577 10.4209 22.6236 9.59272 22.7741Z" fill="#5141C3"/>
<path d="M49.446 10.0189C49.8233 9.72688 50.0644 9.5012 50.3412 9.33305C51.5087 8.62285 52.7901 8.47682 54.1028 8.72683C56.9937 9.27553 58.5386 10.8375 59.0989 13.7094C59.5298 15.9108 59.3958 18.0436 58.1702 19.9972C57.2549 21.4553 55.882 22.2385 54.1921 22.5726C52.5914 22.889 51.0645 22.6832 49.4951 22.077C49.475 22.3137 49.4482 22.4863 49.4482 22.6611C49.446 24.1921 49.4527 25.7209 49.4438 27.252C49.4393 28.2653 49.763 29.0905 50.7207 29.5884C50.839 29.6481 50.9105 29.7941 51.0935 29.9999C48.5039 29.9999 46.0684 29.9999 43.6328 29.9999C43.606 29.9578 43.5792 29.9136 43.5547 29.8716C43.6998 29.7432 43.8248 29.5817 43.99 29.4888C44.7245 29.0728 45.0683 28.429 45.0705 27.6215C45.0817 22.8093 45.0861 17.9971 45.0705 13.185C45.0683 12.3332 44.8651 11.5367 43.9788 11.1075C43.8739 11.0566 43.7556 10.8641 43.7779 10.7734C43.8047 10.6672 43.9699 10.561 44.0972 10.5189C45.325 10.1141 46.5595 9.73351 47.7851 9.31757C48.1133 9.20694 48.4124 9.00561 48.7182 8.83303C49.1781 8.57639 49.4147 8.69365 49.4415 9.21137C49.4549 9.42598 49.446 9.64502 49.446 10.0189ZM49.446 15.6232C49.446 16.8754 49.4393 18.1299 49.4482 19.3822C49.4572 20.3756 50.0666 21.3225 50.877 21.6367C52.1427 22.1279 53.4442 21.4597 54.0113 20.0348C54.8484 17.933 54.8283 15.747 54.5939 13.5567C54.5113 12.7823 54.268 12.0079 53.9934 11.2734C53.5759 10.1561 52.5267 9.5897 51.4284 9.80653C50.464 9.9968 49.3344 11.061 49.4259 12.196C49.5174 13.331 49.446 14.4793 49.446 15.6232Z" fill="#5141C3"/>
<path d="M86.6262 6.5054C86.6262 6.23548 86.5994 5.96113 86.6306 5.69563C86.8115 4.19556 87.0124 2.69992 87.1887 1.19986C87.2356 0.797186 87.3963 0.646737 87.8294 0.64895C93.5935 0.662225 99.3575 0.660012 105.124 0.653375C105.479 0.653375 105.648 0.726387 105.693 1.12242C105.876 2.75081 106.106 4.37477 106.296 6.00095C106.316 6.18016 106.2 6.37486 106.146 6.56292C106.024 6.42575 105.854 6.30849 105.787 6.14919C105.218 4.81506 104.519 3.57828 103.398 2.60257C102.228 1.58704 100.849 1.39677 99.3866 1.55828C99.1946 1.58041 98.9624 1.84369 98.8776 2.04945C98.7704 2.31053 98.7682 2.6247 98.7682 2.91675C98.7615 8.55637 98.7637 14.1982 98.757 19.8378C98.757 20.8711 99.1589 21.6521 100.114 22.1167C100.23 22.172 100.347 22.2251 100.463 22.2782C100.422 22.3424 100.38 22.4065 100.34 22.4685C97.7502 22.4685 95.1629 22.4685 92.4237 22.4685C92.6157 22.2871 92.6961 22.1698 92.8077 22.1123C93.7765 21.6167 94.1605 20.7936 94.1628 19.7582C94.1672 17.8046 94.165 15.8509 94.165 13.8973C94.165 10.4326 94.1695 6.96781 94.1605 3.50084C94.1605 3.06056 94.1181 2.62027 94.0578 2.18441C93.9931 1.71094 93.6939 1.54501 93.2051 1.50518C90.5753 1.28393 88.9479 2.67337 87.7647 4.78408C87.5035 5.24871 87.316 5.75315 87.0749 6.22662C87.0034 6.36822 86.8583 6.47221 86.7467 6.5939C86.7065 6.56514 86.6663 6.53416 86.6262 6.5054Z" fill="#5141C3"/>
<path d="M116.897 15.0701C116.897 13.4108 116.884 11.7514 116.906 10.0921C116.913 9.64735 116.761 9.49026 116.33 9.53893C116.147 9.56106 115.951 9.57433 115.774 9.53451C115.589 9.49247 115.42 9.37964 115.243 9.29777C115.373 9.08759 115.457 8.75129 115.643 8.68492C117.007 8.18932 118.141 7.3707 119.058 6.28658C119.491 5.7755 119.864 5.16928 120.099 4.54536C120.759 2.79528 119.797 1.24654 117.942 0.879268C116.21 0.536333 114.582 0.837231 113.022 1.58505C112.727 1.72665 112.464 1.95011 112.227 2.178C111.613 2.77316 111.578 3.45681 112.16 4.08295C112.759 4.72457 113.116 5.41265 113.02 6.31977C112.892 7.51894 111.861 8.40835 110.548 8.39066C109.278 8.37296 108.22 7.40389 108.173 6.20915C108.091 4.10728 109.229 2.68687 110.906 1.65143C112.756 0.511995 114.808 -0.0743132 116.996 0.00754874C118.092 0.0473735 119.159 0.339421 120.063 1.02529C120.815 1.59611 121.235 2.35942 121.251 3.2953C121.277 4.93475 121.277 6.57642 121.255 8.21808C121.248 8.70704 121.411 8.88183 121.898 8.842C122.304 8.80882 122.719 8.80439 123.124 8.85306C123.28 8.87076 123.494 9.04555 123.541 9.19379C123.633 9.49026 123.403 9.55221 123.144 9.54778C122.659 9.54115 122.177 9.55663 121.693 9.54336C121.387 9.53672 121.262 9.64735 121.264 9.96152C121.271 12.9484 121.251 15.9352 121.275 18.9221C121.282 19.9022 121.864 20.4443 122.623 20.2584C122.844 20.2031 123.032 20.0217 123.246 19.9177C123.367 19.8602 123.508 19.8425 123.639 19.8071C123.644 19.9354 123.688 20.077 123.648 20.1876C122.802 22.4289 119.882 23.0174 118.214 22.2054C117.319 21.7696 116.955 21.0018 116.915 20.0505C116.913 19.9951 116.911 19.9398 116.911 19.8845C116.9 18.276 116.9 16.6742 116.897 15.0701C116.9 15.0701 116.897 15.0701 116.897 15.0701Z" fill="#5141C3"/>
<path d="M68.2201 8.8955C70.832 8.8955 73.4439 8.8955 76.1139 8.8955C76.0424 9.03267 76.0246 9.1079 75.9777 9.15657C75.1026 10.0681 75.0401 10.3491 75.6004 11.4841C76.6697 13.6457 77.7614 15.7962 78.8463 17.949C78.9177 18.0928 79.0227 18.2211 79.1789 18.4601C79.5696 17.5817 79.9246 16.7874 80.2795 15.9909C80.8979 14.5949 81.5341 13.2076 82.1212 11.7983C82.2708 11.4376 82.3222 11.0084 82.3132 10.6124C82.2931 9.63447 81.6212 9.21852 80.7305 9.02825C81.101 8.77602 85.6551 8.74947 86.153 8.99285C86.0637 9.05259 85.9967 9.11675 85.9186 9.14551C84.2822 9.71412 83.387 10.9752 82.6972 12.4598C80.8041 16.5308 78.9177 20.604 76.9622 24.6462C76.4777 25.6462 75.8236 26.5887 75.1115 27.4472C73.9641 28.8322 72.2853 29.257 70.7583 28.7083C69.3385 28.1972 68.6933 26.4228 69.4769 25.1374C69.7448 24.6971 70.1288 24.3873 70.6824 24.3497C71.0195 24.3276 71.2807 24.3829 71.4771 24.7148C71.6111 24.9382 71.8477 25.1506 72.0888 25.2546C73.1626 25.7082 74.2587 25.7568 75.3191 25.2126C76.4755 24.6196 76.8126 23.5311 76.1607 22.1306C75.4173 20.531 74.5802 18.9712 73.7564 17.4069C72.7184 15.4356 71.6312 13.4886 70.6087 11.5084C70.0529 10.4288 69.3809 9.49508 68.1821 9.03489C68.1955 8.98842 68.2067 8.94196 68.2201 8.8955Z" fill="#5141C3"/>
<path d="M147.227 17.3932C146.91 17.9795 146.618 18.5813 146.272 19.1499C143.912 23.0085 139.094 23.5726 135.822 21.6765C134.205 20.7407 133.335 19.2583 133.016 17.4861C132.678 15.6033 132.745 13.7271 133.725 12.0036C134.98 9.79328 137.027 8.84634 139.472 8.65607C141.416 8.50562 143.222 8.90165 144.635 10.3553C145.687 11.4372 146.115 12.7934 146.236 14.2647C146.265 14.6143 146.135 14.7448 145.771 14.7736C143.086 14.9904 140.4 15.2227 137.717 15.4727C137.561 15.4882 137.304 15.6829 137.295 15.809C137.166 17.5569 138.762 19.6853 140.467 20.0061C142.338 20.3557 144.057 19.9729 145.537 18.7516C145.977 18.3888 146.336 17.9352 146.736 17.5259C146.83 17.4286 146.937 17.3445 147.037 17.2538C147.097 17.3025 147.162 17.3489 147.227 17.3932ZM142.224 12.8089C142.113 12.1983 142.048 11.5721 141.876 10.977C141.659 10.2314 141.266 9.53663 140.445 9.34857C139.594 9.15387 138.889 9.51009 138.349 10.1937C137.387 11.4084 137.241 12.8509 137.157 14.3112C137.132 14.7293 137.429 14.7094 137.733 14.6718C138.746 14.5479 139.76 14.4152 140.778 14.3245C142.166 14.2028 142.168 14.216 142.224 12.8089Z" fill="#5141C3"/>
<path d="M131.986 22.4866C129.493 22.4866 127.055 22.4866 124.617 22.4866C124.599 22.4467 124.579 22.4069 124.562 22.3671C124.689 22.2631 124.805 22.1414 124.945 22.0596C125.684 21.6326 126.066 20.9909 126.066 20.1546C126.073 15.1787 126.075 10.2006 126.064 5.22476C126.062 4.35968 125.83 3.58752 124.97 3.1406C124.865 3.0875 124.736 2.8574 124.765 2.81979C124.854 2.70031 125.004 2.59854 125.149 2.55429C125.979 2.30207 126.834 2.11401 127.647 1.81753C128.372 1.55203 129.062 1.18034 129.761 0.844039C130.178 0.642703 130.401 0.751115 130.433 1.20467C130.446 1.38831 130.437 1.57416 130.437 1.7578C130.437 7.67398 130.444 13.5924 130.433 19.5086C130.431 20.6458 130.62 21.6436 131.808 22.1569C131.855 22.1768 131.895 22.2277 131.922 22.2742C131.949 22.3162 131.955 22.3715 131.986 22.4866Z" fill="#5141C3"/>
<path d="M67.5793 22.4774C65.0188 22.4774 62.5698 22.4774 60.1187 22.4774C60.103 22.4376 60.0874 22.3978 60.0718 22.358C60.208 22.2562 60.333 22.1411 60.4803 22.0549C61.2148 21.6234 61.5943 20.9818 61.5965 20.1433C61.6032 15.1652 61.6054 10.1893 61.5943 5.21121C61.592 4.34612 61.3509 3.57397 60.4915 3.13147C60.3977 3.0828 60.2772 2.8704 60.295 2.85048C60.4089 2.72659 60.5473 2.59384 60.7036 2.54074C61.9291 2.12921 63.1637 1.74645 64.3848 1.32387C64.7129 1.21103 65.0032 0.989784 65.3157 0.830485C65.6952 0.637999 65.9251 0.759685 65.9653 1.17563C65.9809 1.33936 65.9698 1.50751 65.9698 1.67344C65.9698 7.59184 65.9787 13.508 65.9631 19.4264C65.9609 20.6013 66.1394 21.6367 67.365 22.1765C67.432 22.2097 67.4655 22.3181 67.5793 22.4774Z" fill="#5141C3"/>
<path d="M114.518 22.4953C112.095 22.4953 109.673 22.4953 107.073 22.4953C107.298 22.2785 107.394 22.1413 107.528 22.0639C108.242 21.6502 108.64 21.0484 108.644 20.2209C108.655 17.9376 108.664 15.6543 108.66 13.3711C108.658 12.6321 108.242 12.1476 107.613 11.8002C107.416 11.6918 107.262 11.5104 107.09 11.3621C107.276 11.2338 107.445 11.0524 107.651 10.9882C109.336 10.4594 110.952 9.79347 112.421 8.80006C112.745 8.58103 112.977 8.7005 113.031 9.09875C113.053 9.26247 113.04 9.43062 113.04 9.59656C113.04 12.8201 113.035 16.0437 113.046 19.2651C113.049 19.7032 113.104 20.1457 113.165 20.5815C113.254 21.2232 113.593 21.7033 114.167 22.0263C114.326 22.1148 114.457 22.2498 114.6 22.3626C114.571 22.4068 114.544 22.4511 114.518 22.4953Z" fill="#5141C3"/>
</svg>
