<svg width="20" height="22" viewBox="0 0 20 22" fill="none" xmlns="http://www.w3.org/2000/svg"><path d="M8.483 0.038 C 6.244 0.253,4.071 1.556,2.832 3.427 C 2.351 4.152,1.997 4.971,1.799 5.812 C 1.639 6.488,1.635 6.611,1.633 10.117 C 1.632 11.932,1.618 13.600,1.600 13.824 C 1.545 14.539,1.444 14.852,1.099 15.385 C 0.703 15.996,0.596 16.299,0.597 16.795 C 0.599 17.363,0.796 17.834,1.197 18.233 C 1.488 18.522,1.748 18.672,2.120 18.767 C 2.361 18.829,2.494 18.833,4.173 18.833 C 5.581 18.833,5.971 18.842,5.981 18.875 C 6.254 19.788,6.640 20.412,7.273 20.965 C 8.837 22.330,11.163 22.330,12.727 20.965 C 13.360 20.412,13.746 19.788,14.019 18.875 C 14.029 18.842,14.419 18.833,15.827 18.833 C 17.506 18.833,17.639 18.829,17.880 18.767 C 18.252 18.672,18.512 18.522,18.803 18.233 C 19.204 17.834,19.401 17.363,19.403 16.795 C 19.404 16.299,19.297 15.996,18.901 15.385 C 18.556 14.852,18.455 14.539,18.400 13.824 C 18.382 13.600,18.368 11.944,18.367 10.143 C 18.367 6.519,18.365 6.487,18.152 5.655 C 17.623 3.590,16.137 1.794,14.152 0.820 C 13.406 0.454,12.636 0.212,11.800 0.080 C 11.383 0.015,9.034 -0.015,8.483 0.038 M11.305 2.034 C 13.368 2.240,15.257 3.635,16.012 5.511 C 16.152 5.860,16.217 6.075,16.308 6.500 C 16.374 6.805,16.378 6.960,16.400 10.567 C 16.425 14.644,16.417 14.469,16.618 15.174 C 16.757 15.664,16.961 16.080,17.321 16.616 C 17.383 16.708,17.433 16.794,17.433 16.808 C 17.433 16.822,14.088 16.833,10.000 16.833 C 5.912 16.833,2.567 16.822,2.567 16.808 C 2.567 16.794,2.617 16.708,2.679 16.616 C 3.039 16.080,3.243 15.664,3.382 15.174 C 3.583 14.468,3.575 14.644,3.599 10.583 C 3.623 6.553,3.617 6.693,3.804 6.011 C 4.199 4.567,5.368 3.219,6.817 2.537 C 7.310 2.305,7.916 2.126,8.467 2.050 C 8.859 1.996,10.814 1.985,11.305 2.034 M11.900 18.862 C 11.900 18.917,11.707 19.176,11.533 19.354 C 11.107 19.788,10.605 19.999,10.000 19.999 C 9.395 19.999,8.893 19.788,8.467 19.354 C 8.293 19.176,8.100 18.917,8.100 18.862 C 8.100 18.846,8.955 18.833,10.000 18.833 C 11.045 18.833,11.900 18.846,11.900 18.862 " stroke="none" fill-rule="evenodd" fill="#3B3E44"></path></svg>