<svg width="20" height="22" viewBox="0 0 20 22" fill="none" xmlns="http://www.w3.org/2000/svg">
<path d="M10.7595 1.00364L9.21584 1.00002C5.69636 0.991755 2.64049 3.85134 2.61624 7.31679V13.4099C2.61624 14.2412 2.51036 15.0537 2.0568 15.7454L1.75474 16.2059C1.29602 16.9054 1.78927 17.8423 2.61624 17.8423H17.384C18.211 17.8423 18.7043 16.9054 18.2455 16.2059L17.9435 15.7454C17.4899 15.0537 17.384 14.2412 17.384 13.4099V7.31679C17.3431 3.85119 14.279 1.01189 10.7595 1.00364Z" stroke="#3B3E44" stroke-width="2" stroke-linecap="round" stroke-linejoin="round"/>
<path d="M13.1581 17.8423C13.1581 19.5864 11.7443 21.0002 10.0002 21.0002C8.25607 21.0002 6.84229 19.5864 6.84229 17.8423" stroke="#3B3E44" stroke-width="2" stroke-linecap="round" stroke-linejoin="round"/>
</svg>
