<svg width="17" height="20" viewBox="0 0 17 20" fill="none" xmlns="http://www.w3.org/2000/svg">
<path fill-rule="evenodd" clip-rule="evenodd" d="M16.0242 2.72741C16.0242 1.22119 14.7582 0.000156403 13.1964 0.000156403H4.99987L0 5.00003L0 17.2727C0 18.779 1.26605 20 2.82781 20H13.1964C14.7582 20 16.0242 18.779 16.0242 17.2727V2.72741ZM1.88527 17.2726C1.88527 17.7746 2.30728 18.1816 2.82787 18.1816H13.1965C13.7171 18.1816 14.1391 17.7746 14.1391 17.2726L14.1391 2.72722C14.1391 2.22514 13.7171 1.81813 13.1965 1.81813H8.9L8.9 6.00004C8.9 7.60167 7.60163 8.90004 6 8.90004H1.88527L1.88527 17.2726ZM1.88527 7.10004H6C6.60751 7.10004 7.1 6.60756 7.1 6.00004V1.81813H6.02058L1.88527 6.00003V7.10004Z" fill="#3B3E44"/>
</svg>
