<svg width="94" height="82" viewBox="0 0 94 82" fill="none" xmlns="http://www.w3.org/2000/svg">
<path fill-rule="evenodd" clip-rule="evenodd" d="M85.957 68.7393L77.0555 60.6809C76.3348 60.0142 75.3999 59.6613 74.4455 59.6613H25.9256V51.8185H71.9718C74.1143 51.8185 75.8674 50.0735 75.8674 47.8972V24.0748H85.957V68.7393ZM16.944 45.0074L8.04248 53.0659V8.40137H68.0738V43.9879H19.554C19.0671 43.9879 18.5801 44.0859 18.1321 44.2624C17.7036 44.4388 17.2946 44.6741 16.944 45.0074ZM89.8522 16.228H75.867V4.46495C75.867 2.28879 74.1139 0.543945 71.9714 0.543945H4.14878C2.0062 0.543945 0.253174 2.28879 0.253174 4.46495V61.8489C0.253174 63.3977 1.14916 64.8093 2.57106 65.4366C3.07749 65.6719 3.6034 65.7699 4.14878 65.7699C5.08373 65.7699 6.01868 65.4366 6.75884 64.7701L18.134 54.4578V63.5742C18.134 65.7503 19.887 67.4952 22.0296 67.4952H72.9453L87.2421 80.4541C87.9823 81.1207 88.9173 81.4539 89.8522 81.4539C90.3976 81.4539 90.9235 81.3559 91.4299 81.1207C92.8518 80.4933 93.7478 79.0817 93.7478 77.5329V20.149C93.7478 17.9728 91.9948 16.228 89.8522 16.228Z" fill="#3B3E44"/>
</svg>
