<svg width="92" height="82" viewBox="0 0 92 82" fill="none" xmlns="http://www.w3.org/2000/svg">
<path d="M87.4 82H4.6C3.38 82 2.20998 81.52 1.34731 80.6657C0.484641 79.8114 2.75403e-08 78.6526 2.75403e-08 77.4444V43.2186C-7.18924e-05 42.5676 0.140718 41.9242 0.412885 41.3317C0.685053 40.7392 1.08228 40.2113 1.5778 39.7837L18.4 25.256V4.55556C18.4 3.34735 18.8846 2.18862 19.7473 1.33429C20.61 0.479959 21.78 0 23 0H87.4C88.62 0 89.79 0.479959 90.6527 1.33429C91.5154 2.18862 92 3.34735 92 4.55556V77.4444C92 78.6526 91.5154 79.8114 90.6527 80.6657C89.79 81.52 88.62 82 87.4 82ZM32.2 72.8889H46V45.2913L27.6 29.4016L9.2 45.2913V72.8889H23V54.6667H32.2V72.8889ZM55.2 72.8889H82.8V9.11111H27.6V18.8008C28.6764 18.8008 29.7574 19.1743 30.6222 19.926L53.6222 39.7837C54.1177 40.2113 54.5149 40.7392 54.7871 41.3317C55.0593 41.9242 55.2001 42.5676 55.2 43.2186V72.8889ZM64.4 36.4444H73.6V45.5556H64.4V36.4444ZM64.4 54.6667H73.6V63.7778H64.4V54.6667ZM64.4 18.2222H73.6V27.3333H64.4V18.2222ZM46 18.2222H55.2V27.3333H46V18.2222Z" fill="#3B3E44"/>
</svg>
