<svg width="20" height="20" viewBox="0 0 20 20" fill="none" xmlns="http://www.w3.org/2000/svg">
<path fill-rule="evenodd" clip-rule="evenodd" d="M13.451 0.0787542C14.5131 -0.229736 15.6202 0.395466 15.9236 1.47518C15.9747 1.65683 16.0006 1.84483 16.0006 2.03375L16.0006 3.73438H18.0006C19.1053 3.73438 20.0007 4.64468 20.0007 5.76761V17.967C20.0007 19.0899 19.1053 20.0002 18.0006 20.0002H2.00007C0.895463 20.0002 0 19.0899 0 17.967H0.0264667C0.00887219 17.8581 0 17.7479 0 17.6373V5.51929C0 4.6115 0.591976 3.81368 1.45061 3.56429L13.451 0.0787542ZM8.1454 17.967H18.0006V5.76761H16.0006V7.80029H18.0006V9.83352H16.0006L16.0006 14.1518C16.0006 15.0596 15.4086 15.8574 14.55 16.1068L8.1454 17.967ZM2.00098 5.52216V17.6402L14.0014 14.1546V2.03662L2.00098 5.52216ZM12.0001 7.80128C12.0001 8.36274 11.5523 8.8179 11 8.8179C10.4477 8.8179 10 8.36274 10 7.80128C10 7.23982 10.4477 6.78467 11 6.78467C11.5523 6.78467 12.0001 7.23982 12.0001 7.80128Z" fill="#3B3E44"/>
</svg>
