<svg width="17" height="16" viewBox="0 0 17 16" fill="none" xmlns="http://www.w3.org/2000/svg">
<path fill-rule="evenodd" clip-rule="evenodd" d="M6.99512 12.9902C3.40796 12.9902 0.5 10.0823 0.5 6.49512C0.5 2.90796 3.40796 0 6.99512 0C10.5823 0 13.4902 2.90796 13.4902 6.49512C13.4902 7.9962 12.981 9.37834 12.1259 10.4782L16.4995 14.8518L15.3513 16L10.9777 11.6264C9.87788 12.4812 8.49595 12.9902 6.99512 12.9902ZM11.8657 6.49634C11.8657 9.18671 9.68476 11.3677 6.99439 11.3677C4.30402 11.3677 2.12305 9.18671 2.12305 6.49634C2.12305 3.80597 4.30402 1.625 6.99439 1.625C9.68476 1.625 11.8657 3.80597 11.8657 6.49634Z" fill="#84878B"/>
</svg>
