<svg width="18" height="20" viewBox="0 0 18 20" fill="none" xmlns="http://www.w3.org/2000/svg">
<path d="M16.8036 1.64887C16.6848 1.55486 16.5459 1.48809 16.3973 1.45347C16.2486 1.41885 16.0939 1.41726 15.9445 1.44881C14.8516 1.67282 13.7235 1.67568 12.6295 1.45719C11.5354 1.23871 10.4987 0.803521 9.58313 0.178411C9.41193 0.0622475 9.20854 0 9.00018 0C8.79182 0 8.58842 0.0622475 8.41722 0.178411C7.50163 0.803521 6.46491 1.23871 5.3709 1.45719C4.27688 1.67568 3.14871 1.67282 2.05586 1.44881C1.90648 1.41726 1.75177 1.41885 1.6031 1.45347C1.45444 1.48809 1.31559 1.55486 1.19677 1.64887C1.07812 1.74302 0.982534 1.86197 0.917051 1.997C0.851567 2.13202 0.817846 2.27967 0.818365 2.42912V9.88145C0.817456 11.3156 1.16688 12.7293 1.83755 14.0047C2.50821 15.2801 3.48071 16.3803 4.67404 17.2137L8.407 19.8146C8.58021 19.9352 8.78755 20 9.00018 20C9.21281 20 9.42015 19.9352 9.59336 19.8146L13.3263 17.2137C14.5196 16.3803 15.4921 15.2801 16.1628 14.0047C16.8335 12.7293 17.1829 11.3156 17.182 9.88145V2.42912C17.1825 2.27967 17.1488 2.13202 17.0833 1.997C17.0178 1.86197 16.9222 1.74302 16.8036 1.64887ZM15.1365 9.88145C15.1373 10.9966 14.8658 12.0957 14.3446 13.0875C13.8234 14.0792 13.0675 14.9349 12.1399 15.5832L9.00018 17.7739L5.86041 15.5832C4.93283 14.9349 4.17698 14.0792 3.65577 13.0875C3.13455 12.0957 2.86303 10.9966 2.86382 9.88145V3.57948C5.00789 3.75896 7.15522 3.2724 9.00018 2.18904C10.8451 3.2724 12.9925 3.75896 15.1365 3.57948V9.88145ZM10.5752 7.59073L7.82404 10.2916L6.91382 9.39129C6.72123 9.20293 6.46003 9.09711 6.18768 9.09711C5.91533 9.09711 5.65413 9.20293 5.46154 9.39129C5.26896 9.57966 5.16077 9.83513 5.16077 10.1015C5.16077 10.3679 5.26896 10.6234 5.46154 10.8117L7.09791 12.4122C7.19298 12.506 7.3061 12.5804 7.43073 12.6312C7.55535 12.682 7.68903 12.7081 7.82404 12.7081C7.95905 12.7081 8.09273 12.682 8.21736 12.6312C8.34199 12.5804 8.4551 12.506 8.55018 12.4122L12.0684 9.00117C12.2609 8.81281 12.3691 8.55733 12.3691 8.29095C12.3691 8.02456 12.2609 7.76909 12.0684 7.58073C11.8758 7.39236 11.6146 7.28654 11.3422 7.28654C11.0699 7.28654 10.8087 7.39236 10.6161 7.58073L10.5752 7.59073Z" fill="#3B3E44"/>
</svg>
